<?xml version="1.0" encoding="UTF-8"?>
<svg width="24px" height="24px" viewBox="0 0 24 24" version="1.1" xmlns="http://www.w3.org/2000/svg">
    <g stroke="none" stroke-width="1" fill="none" fill-rule="evenodd">
        <path d="M19,8h-2V5c0-1.7-1.3-3-3-3H8C6.3,2,5,3.3,5,5v3H3C2.4,8,2,8.4,2,9v8c0,0.6,0.4,1,1,1h2v2c0,0.6,0.4,1,1,1h2c0.6,0,1-0.4,1-1v-2h8v2c0,0.6,0.4,1,1,1h2c0.6,0,1-0.4,1-1v-2h2c0.6,0,1-0.4,1-1V9C20,8.4,19.6,8,19,8z M7,5c0-0.6,0.4-1,1-1h6c0.6,0,1,0.4,1,1v3H7V5z M7,19H5v-1h2V19z M17,19h-2v-1h2V19z" fill="#2A5298"/>
        <text x="8" y="14" font-family="Arial" font-size="4" fill="#2A5298">1300cc</text>
    </g>
</svg>
