<?xml version="1.0" encoding="UTF-8"?>
<svg width="24px" height="24px" viewBox="0 0 24 24" version="1.1" xmlns="http://www.w3.org/2000/svg">
    <g stroke="none" stroke-width="1" fill="none" fill-rule="evenodd">
        <path d="M21,9h-2V6c0-2.2-1.8-4-4-4H9C6.8,2,5,3.8,5,6v3H3c-0.6,0-1,0.4-1,1v8c0,0.6,0.4,1,1,1h2v2c0,0.6,0.4,1,1,1h2c0.6,0,1-0.4,1-1v-2h8v2c0,0.6,0.4,1,1,1h2c0.6,0,1-0.4,1-1v-2h2c0.6,0,1-0.4,1-1v-8C22,9.4,21.6,9,21,9z M7,6c0-1.1,0.9-2,2-2h6c1.1,0,2,0.9,2,2v3H7V6z M7,20H5v-1h2V20z M19,20h-2v-1h2V20z" fill="#2A5298"/>
        <rect x="8" y="11" width="2" height="4" fill="#2A5298"/>
        <rect x="11" y="11" width="2" height="4" fill="#2A5298"/>
        <rect x="14" y="11" width="2" height="4" fill="#2A5298"/>
    </g>
</svg>
