<?xml version="1.0" encoding="UTF-8"?>
<svg width="24px" height="24px" viewBox="0 0 24 24" version="1.1" xmlns="http://www.w3.org/2000/svg">
    <g stroke="none" stroke-width="1" fill="none" fill-rule="evenodd">
        <path d="M20,8h-3V6c0-2.2-1.8-4-4-4H7C4.8,2,3,3.8,3,6v2H1C0.4,8,0,8.4,0,9v10c0,0.6,0.4,1,1,1h2v2c0,0.6,0.4,1,1,1h2c0.6,0,1-0.4,1-1v-2h10v2c0,0.6,0.4,1,1,1h2c0.6,0,1-0.4,1-1v-2h2c0.6,0,1-0.4,1-1V9C21,8.4,20.6,8,20,8z M5,6c0-1.1,0.9-2,2-2h6c1.1,0,2,0.9,2,2v2H5V6z M6,21H4v-1h2V21z M18,21h-2v-1h2V21z" fill="#2A5298"/>
    </g>
</svg>
