<?xml version="1.0" encoding="UTF-8"?>
<svg width="24px" height="24px" viewBox="0 0 24 24" version="1.1" xmlns="http://www.w3.org/2000/svg">
    <g stroke="none" stroke-width="1" fill="none" fill-rule="evenodd">
        <path d="M19,12h-1V7c0-2.8-2.2-5-5-5H7C4.2,2,2,4.2,2,7v5H1c-0.6,0-1,0.4-1,1v4c0,0.6,0.4,1,1,1h1v2c0,0.6,0.4,1,1,1h2c0.6,0,1-0.4,1-1v-2h12v2c0,0.6,0.4,1,1,1h2c0.6,0,1-0.4,1-1v-2h1c0.6,0,1-0.4,1-1v-4C20,12.4,19.6,12,19,12z M4,7c0-1.7,1.3-3,3-3h6c1.7,0,3,1.3,3,3v5H4V7z M6,19H4v-1h2V19z M18,19h-2v-1h2V19z" fill="#2A5298"/>
    </g>
</svg>
