<?xml version="1.0" encoding="UTF-8"?>
<svg width="24px" height="24px" viewBox="0 0 24 24" version="1.1" xmlns="http://www.w3.org/2000/svg">
    <g stroke="none" stroke-width="1" fill="none" fill-rule="evenodd">
        <path d="M21,8c0-1.7-1.3-3-3-3h-4c-1.7,0-3,1.3-3,3v2H3c-0.6,0-1,0.4-1,1v8c0,0.6,0.4,1,1,1h2v2c0,0.6,0.4,1,1,1h2c0.6,0,1-0.4,1-1v-2h8v2c0,0.6,0.4,1,1,1h2c0.6,0,1-0.4,1-1v-2h2c0.6,0,1-0.4,1-1v-8c0-0.6-0.4-1-1-1h-2V8z M13,8c0-0.6,0.4-1,1-1h4c0.6,0,1,0.4,1,1v2h-6V8z M7,20H5v-1h2V20z M19,20h-2v-1h2V20z" fill="#2A5298"/>
    </g>
</svg>
