<?xml version="1.0" encoding="UTF-8"?>
<svg width="48px" height="48px" viewBox="0 0 48 48" version="1.1" xmlns="http://www.w3.org/2000/svg">
    <g stroke="none" stroke-width="1" fill="none" fill-rule="evenodd">
        <path d="M40,12H8c-2.2,0-4,1.8-4,4v16c0,2.2,1.8,4,4,4h32c2.2,0,4-1.8,4-4V16C44,13.8,42.2,12,40,12z M40,32H8V16h32V32z" fill="#2A5298"/>
        <path d="M24,20c-2.2,0-4,1.8-4,4s1.8,4,4,4s4-1.8,4-4S26.2,20,24,20z" fill="#2A5298"/>
        <path d="M14,24h2M32,24h2" stroke="#2A5298" stroke-width="2"/>
        <text x="22" y="26" font-family="Arial" font-size="6" fill="#FFFFFF">$</text>
    </g>
</svg>
