<?xml version="1.0" encoding="UTF-8"?>
<svg width="24px" height="24px" viewBox="0 0 24 24" version="1.1" xmlns="http://www.w3.org/2000/svg">
    <g stroke="none" stroke-width="1" fill="none" fill-rule="evenodd">
        <path d="M21,12h-2V8c0-2.2-1.8-4-4-4H9C6.8,4,5,5.8,5,8v4H3c-0.6,0-1,0.4-1,1v6c0,0.6,0.4,1,1,1h2c0,1.1,0.9,2,2,2s2-0.9,2-2h6c0,1.1,0.9,2,2,2s2-0.9,2-2h2c0.6,0,1-0.4,1-1v-6C22,12.4,21.6,12,21,12z M7,8c0-1.1,0.9-2,2-2h6c1.1,0,2,0.9,2,2v4H7V8z M7,18c-0.6,0-1-0.4-1-1s0.4-1,1-1s1,0.4,1,1S7.6,18,7,18z M17,18c-0.6,0-1-0.4-1-1s0.4-1,1-1s1,0.4,1,1S17.6,18,17,18z" fill="#2A5298"/>
        <path d="M3,7L3,7c0.6,0,1-0.4,1-1V4h2c0.6,0,1-0.4,1-1l0,0c0-0.6-0.4-1-1-1H3C2.4,2,2,2.4,2,3v3C2,6.6,2.4,7,3,7z" fill="#2A5298"/>
    </g>
</svg>
