<?xml version="1.0" encoding="UTF-8"?>
<svg width="48px" height="48px" viewBox="0 0 48 48" version="1.1" xmlns="http://www.w3.org/2000/svg">
    <g stroke="none" stroke-width="1" fill="none" fill-rule="evenodd">
        <path d="M36,4H12C9.8,4,8,5.8,8,8v32c0,2.2,1.8,4,4,4h24c2.2,0,4-1.8,4-4V8C40,5.8,38.2,4,36,4z M36,40H12V8h24V40z" fill="#2A5298"/>
        <path d="M16,14h16v2H16V14z M16,20h16v2H16V20z M16,26h16v2H16V26z M16,32h10v2H16V32z" fill="#2A5298"/>
        <circle cx="32" cy="33" r="2" fill="#2A5298"/>
    </g>
</svg>
