<?xml version="1.0" encoding="UTF-8"?>
<svg width="48px" height="48px" viewBox="0 0 48 48" version="1.1" xmlns="http://www.w3.org/2000/svg">
    <g stroke="none" stroke-width="1" fill="none" fill-rule="evenodd">
        <path d="M42,24h-4V18c0-4.4-3.6-8-8-8H18c-4.4,0-8,3.6-8,8v6H6c-1.1,0-2,0.9-2,2v16c0,1.1,0.9,2,2,2h4v2c0,1.1,0.9,2,2,2h4c1.1,0,2-0.9,2-2v-2h16v2c0,1.1,0.9,2,2,2h4c1.1,0,2-0.9,2-2v-2h4c1.1,0,2-0.9,2-2V26C44,24.9,43.1,24,42,24z M14,18c0-2.2,1.8-4,4-4h12c2.2,0,4,1.8,4,4v6H14V18z M14,42h-4v-2h4V42z M38,42h-4v-2h4V42z" fill="#2A5298"/>
        <path d="M24,28c-2.2,0-4,1.8-4,4s1.8,4,4,4s4-1.8,4-4S26.2,28,24,28z" fill="#2A5298"/>
        <path d="M35,20h-2c-0.6,0-1,0.4-1,1s0.4,1,1,1h2c0.6,0,1-0.4,1-1S35.6,20,35,20z" fill="#2A5298"/>
    </g>
</svg>
