<?xml version="1.0" encoding="UTF-8"?>
<svg width="24px" height="24px" viewBox="0 0 24 24" version="1.1" xmlns="http://www.w3.org/2000/svg">
    <g stroke="none" stroke-width="1" fill="none" fill-rule="evenodd">
        <path d="M18,8h-2V6c0-1.7-1.3-3-3-3H7C5.3,3,4,4.3,4,6v2H2C1.4,8,1,8.4,1,9v8c0,0.6,0.4,1,1,1h1v2c0,0.6,0.4,1,1,1h2c0.6,0,1-0.4,1-1v-2h8v2c0,0.6,0.4,1,1,1h2c0.6,0,1-0.4,1-1v-2h1c0.6,0,1-0.4,1-1V9C19,8.4,18.6,8,18,8z M6,6c0-0.6,0.4-1,1-1h6c0.6,0,1,0.4,1,1v2H6V6z M5,19H3v-1h2V19z M17,19h-2v-1h2V19z" fill="#2A5298"/>
    </g>
</svg>
